<svg version="1.1" xmlns="http://www.w3.org/2000/svg" viewBox="0 0 1862.5 730" width="3725" height="1460">
  <!-- svg-source:excalidraw -->
  
  <defs>
    <style class="style-fonts">
      @font-face {
        font-family: "Virgil";
        src: url("https://excalidraw.com/Virgil.woff2");
      }
      @font-face {
        font-family: "Cascadia";
        src: url("https://excalidraw.com/Cascadia.woff2");
      }
      @font-face {
        font-family: "Assistant";
        src: url("https://excalidraw.com/Assistant-Regular.woff2");
      }
    </style>
    
  </defs>
  <rect x="0" y="0" width="1862.5" height="730" fill="#ffffff"></rect><g stroke-linecap="round" transform="translate(785 10) rotate(0 533.75 355)"><path d="M32 0 C393.24 0, 754.48 0, 1035.5 0 M1035.5 0 C1056.83 0, 1067.5 10.67, 1067.5 32 M1067.5 32 C1067.5 257.29, 1067.5 482.58, 1067.5 678 M1067.5 678 C1067.5 699.33, 1056.83 710, 1035.5 710 M1035.5 710 C711.32 710, 387.15 710, 32 710 M32 710 C10.67 710, 0 699.33, 0 678 M0 678 C0 482.31, 0 286.63, 0 32 M0 32 C0 10.67, 10.67 0, 32 0" stroke="#1971c2" stroke-width="4.5" fill="none" stroke-dasharray="1.5 10"></path></g><g stroke-linecap="round" transform="translate(958.75 491.25) rotate(0 137.49999999999997 102.5)"><path d="M32 0 C105.84 0, 179.67 0, 243 0 C264.33 0, 275 10.67, 275 32 C275 82.21, 275 132.43, 275 173 C275 194.33, 264.33 205, 243 205 C177.15 205, 111.3 205, 32 205 C10.67 205, 0 194.33, 0 173 C0 126.61, 0 80.22, 0 32 C0 10.67, 10.67 0, 32 0" stroke="none" stroke-width="0" fill="#a5d8ff"></path><path d="M32 0 C101.63 0, 171.25 0, 243 0 M243 0 C264.33 0, 275 10.67, 275 32 M275 32 C275 84.62, 275 137.25, 275 173 M275 173 C275 194.33, 264.33 205, 243 205 M243 205 C164.39 205, 85.78 205, 32 205 M32 205 C10.67 205, 0 194.33, 0 173 M0 173 C0 133.04, 0 93.08, 0 32 M0 32 C0 10.67, 10.67 0, 32 0" stroke="#1971c2" stroke-width="4.5" fill="none" stroke-dasharray="1.5 10"></path></g><g stroke-linecap="round" transform="translate(1476.25 231.25) rotate(0 137.5 102.5)"><path d="M32 0 C84.25 0, 136.5 0, 243 0 C264.33 0, 275 10.67, 275 32 C275 85.49, 275 138.97, 275 173 C275 194.33, 264.33 205, 243 205 C173.35 205, 103.71 205, 32 205 C10.67 205, 0 194.33, 0 173 C0 120.22, 0 67.44, 0 32 C0 10.67, 10.67 0, 32 0" stroke="none" stroke-width="0" fill="#a5d8ff"></path><path d="M32 0 C92.73 0, 153.45 0, 243 0 M243 0 C264.33 0, 275 10.67, 275 32 M275 32 C275 60.3, 275 88.59, 275 173 M275 173 C275 194.33, 264.33 205, 243 205 M243 205 C191.1 205, 139.19 205, 32 205 M32 205 C10.67 205, 0 194.33, 0 173 M0 173 C0 125.06, 0 77.13, 0 32 M0 32 C0 10.67, 10.67 0, 32 0" stroke="#1971c2" stroke-width="4.5" fill="none" stroke-dasharray="1.5 10"></path></g><g stroke-linecap="round" transform="translate(943.75 81.25) rotate(0 137.49999999999997 102.5)"><path d="M32 0 C85.26 0, 138.52 0, 243 0 C264.33 0, 275 10.67, 275 32 C275 81.69, 275 131.39, 275 173 C275 194.33, 264.33 205, 243 205 C197.97 205, 152.93 205, 32 205 C10.67 205, 0 194.33, 0 173 C0 125.82, 0 78.64, 0 32 C0 10.67, 10.67 0, 32 0" stroke="none" stroke-width="0" fill="#a5d8ff"></path><path d="M32 0 C75.18 0, 118.36 0, 243 0 M243 0 C264.33 0, 275 10.67, 275 32 M275 32 C275 82.97, 275 133.95, 275 173 M275 173 C275 194.33, 264.33 205, 243 205 M243 205 C192.33 205, 141.65 205, 32 205 M32 205 C10.67 205, 0 194.33, 0 173 M0 173 C0 130.97, 0 88.95, 0 32 M0 32 C0 10.67, 10.67 0, 32 0" stroke="#1971c2" stroke-width="4.5" fill="none" stroke-dasharray="1.5 10"></path></g><g transform="translate(998.75 538.75) rotate(0 94.921875 43.20000000000073)"><text x="0" y="0" font-family="Cascadia, Segoe UI Emoji" font-size="36px" fill="#1971c2" text-anchor="start" style="white-space: pre;" direction="ltr" dominant-baseline="text-before-edge"></text><text x="0" y="43.199999999999996" font-family="Cascadia, Segoe UI Emoji" font-size="36px" fill="#1971c2" text-anchor="start" style="white-space: pre;" direction="ltr" dominant-baseline="text-before-edge">Service A</text></g><g transform="translate(1511.25 313.75) rotate(0 94.921875 21.599999999998545)"><text x="0" y="0" font-family="Cascadia, Segoe UI Emoji" font-size="36px" fill="#1971c2" text-anchor="start" style="white-space: pre;" direction="ltr" dominant-baseline="text-before-edge">Service C</text></g><g transform="translate(981.25 166.25) rotate(0 94.921875 21.599999999998545)"><text x="0" y="0" font-family="Cascadia, Segoe UI Emoji" font-size="36px" fill="#1971c2" text-anchor="start" style="white-space: pre;" direction="ltr" dominant-baseline="text-before-edge">Service B</text></g><g stroke-linecap="round"><g transform="translate(1060.3473862689923 482.5) rotate(0 -2.673693134496176 -100)"><path d="M0 0 C-0.89 -33.33, -4.46 -166.67, -5.35 -200" stroke="#2f9e44" stroke-width="4.5" fill="none" stroke-dasharray="1.5 10"></path></g><g transform="translate(1060.3473862689923 482.5) rotate(0 -2.673693134496176 -100)"><path d="M5.66 -172.09 C1.97 -181.45, -1.72 -190.8, -5.35 -200" stroke="#2f9e44" stroke-width="4.5" fill="none" stroke-dasharray="1.5 8"></path></g><g transform="translate(1060.3473862689923 482.5) rotate(0 -2.673693134496176 -100)"><path d="M-14.85 -171.55 C-11.67 -181.08, -8.48 -190.62, -5.35 -200" stroke="#2f9e44" stroke-width="4.5" fill="none" stroke-dasharray="1.5 8"></path></g></g><mask></mask><g stroke-linecap="round"><g transform="translate(1230 200.0294434444222) rotate(0 120 69.71541264232656)"><path d="M0 0 C40 23.24, 200 116.19, 240 139.43" stroke="#2f9e44" stroke-width="4.5" fill="none" stroke-dasharray="1.5 10"></path></g><g transform="translate(1230 200.0294434444222) rotate(0 120 69.71541264232656)"><path d="M210.47 134.14 C218.22 135.53, 225.97 136.92, 240 139.43" stroke="#2f9e44" stroke-width="4.5" fill="none" stroke-dasharray="1.5 8"></path></g><g transform="translate(1230 200.0294434444222) rotate(0 120 69.71541264232656)"><path d="M220.78 116.4 C225.82 122.44, 230.87 128.49, 240 139.43" stroke="#2f9e44" stroke-width="4.5" fill="none" stroke-dasharray="1.5 8"></path></g></g><mask></mask><g stroke-linecap="round"><g transform="translate(1470 292.5) rotate(0 -122.5 -67.5)"><path d="M0 0 C-40.83 -22.5, -204.17 -112.5, -245 -135" stroke="#1971c2" stroke-width="4.5" fill="none" stroke-dasharray="1.5 10"></path></g><g transform="translate(1470 292.5) rotate(0 -122.5 -67.5)"><path d="M-215.36 -130.38 C-226.95 -132.19, -238.53 -133.99, -245 -135" stroke="#1971c2" stroke-width="4.5" fill="none" stroke-dasharray="1.5 8"></path></g><g transform="translate(1470 292.5) rotate(0 -122.5 -67.5)"><path d="M-225.26 -112.41 C-232.98 -121.24, -240.69 -130.07, -245 -135" stroke="#1971c2" stroke-width="4.5" fill="none" stroke-dasharray="1.5 8"></path></g></g><mask></mask><g stroke-linecap="round"><g transform="translate(1125.283037582793 297.5) rotate(0 3.538924094061116 95)"><path d="M0 0 C1.18 31.67, 5.9 158.33, 7.08 190" stroke="#1971c2" stroke-width="4.5" fill="none" stroke-dasharray="1.5 10"></path></g><g transform="translate(1125.283037582793 297.5) rotate(0 3.538924094061116 95)"><path d="M-4.23 162.21 C0.19 173.06, 4.6 183.9, 7.08 190" stroke="#1971c2" stroke-width="4.5" fill="none" stroke-dasharray="1.5 8"></path></g><g transform="translate(1125.283037582793 297.5) rotate(0 3.538924094061116 95)"><path d="M16.28 161.45 C12.69 172.59, 9.1 183.73, 7.08 190" stroke="#1971c2" stroke-width="4.5" fill="none" stroke-dasharray="1.5 8"></path></g></g><mask></mask><g transform="translate(1150 17.5) rotate(0 210.9375 21.599999999998545)"><text x="0" y="0" font-family="Cascadia, Segoe UI Emoji" font-size="36px" fill="#1971c2" text-anchor="start" style="white-space: pre;" direction="ltr" dominant-baseline="text-before-edge">Microservice Cluster</text></g><g stroke-linecap="round" transform="translate(10 200) rotate(0 220 136.25)"><path d="M32 0 C151.42 0, 270.85 0, 408 0 C429.33 0, 440 10.67, 440 32 C440 104.08, 440 176.15, 440 240.5 C440 261.83, 429.33 272.5, 408 272.5 C313.27 272.5, 218.55 272.5, 32 272.5 C10.67 272.5, 0 261.83, 0 240.5 C0 162.01, 0 83.52, 0 32 C0 10.67, 10.67 0, 32 0" stroke="none" stroke-width="0" fill="#a5d8ff"></path><path d="M32 0 C129.47 0, 226.94 0, 408 0 M408 0 C429.33 0, 440 10.67, 440 32 M440 32 C440 109.07, 440 186.14, 440 240.5 M440 240.5 C440 261.83, 429.33 272.5, 408 272.5 M408 272.5 C264.89 272.5, 121.77 272.5, 32 272.5 M32 272.5 C10.67 272.5, 0 261.83, 0 240.5 M0 240.5 C0 189.45, 0 138.4, 0 32 M0 32 C0 10.67, 10.67 0, 32 0" stroke="#1971c2" stroke-width="4.5" fill="none" stroke-dasharray="1.5 10"></path></g><g transform="translate(113.984375 314.65000000000146) rotate(0 116.015625 21.599999999998545)"><text x="116.015625" y="0" font-family="Cascadia, Segoe UI Emoji" font-size="36px" fill="#1971c2" text-anchor="middle" style="white-space: pre;" direction="ltr" dominant-baseline="text-before-edge">App Service</text></g><g stroke-linecap="round"><g transform="translate(467.5 335) rotate(0 152.5 1.25)"><path d="M0 0 C50.83 0.42, 254.17 2.08, 305 2.5" stroke="#1971c2" stroke-width="4.5" fill="none" stroke-dasharray="1.5 10"></path></g><g transform="translate(467.5 335) rotate(0 152.5 1.25)"><path d="M276.73 12.53 C287.48 8.72, 298.23 4.9, 305 2.5" stroke="#1971c2" stroke-width="4.5" fill="none" stroke-dasharray="1.5 8"></path></g><g transform="translate(467.5 335) rotate(0 152.5 1.25)"><path d="M276.89 -7.99 C287.58 -4, 298.27 -0.01, 305 2.5" stroke="#1971c2" stroke-width="4.5" fill="none" stroke-dasharray="1.5 8"></path></g></g><mask></mask><g transform="translate(480 260) rotate(0 137.109375 21.599999999998545)"><text x="0" y="0" font-family="Cascadia, Segoe UI Emoji" font-size="36px" fill="#1971c2" text-anchor="start" style="white-space: pre;" direction="ltr" dominant-baseline="text-before-edge">Refactored To</text></g></svg>